<svg width="462" height="490" viewBox="0 0 462 490" fill="none" xmlns="http://www.w3.org/2000/svg">
<path d="M268.548 386.112C279.884 395.37 296.575 393.686 305.834 382.35C315.092 371.015 313.408 354.323 302.072 345.065L268.548 386.112ZM119.265 195.758C107.93 186.499 91.2355 188.183 81.9777 199.519C72.7196 210.855 74.4033 227.547 85.7389 236.805L119.265 195.758ZM364.323 226.953L239.901 379.292L280.952 412.82L405.373 260.48L364.323 226.953ZM98.1418 263.513L222.564 111.172L181.514 77.6463L57.0929 229.985L98.1418 263.513ZM111.131 392.282C89.0072 374.214 74.5139 362.302 64.9358 352.068C55.883 342.395 54.0601 337.117 53.6491 333.042L0.916685 338.362C2.9586 358.604 13.1342 374.283 26.2388 388.284C38.818 401.725 56.6413 416.209 77.6053 433.332L111.131 392.282ZM57.0929 229.985C39.9708 250.95 25.3995 268.702 15.758 284.384C5.71412 300.724 -1.12523 318.119 0.916685 338.362L53.6491 333.042C53.2377 328.964 53.9698 323.429 60.9083 312.142C68.2495 300.201 80.0722 285.638 98.1418 263.513L57.0929 229.985ZM239.901 379.292C221.831 401.418 209.922 415.911 199.687 425.488C190.015 434.543 184.736 436.364 180.659 436.776L185.978 489.508C206.22 487.466 221.899 477.291 235.904 464.187C249.344 451.606 263.829 433.784 280.952 412.82L239.901 379.292ZM77.6053 433.332C98.5694 450.454 116.321 465.024 132.004 474.668C148.342 484.711 165.737 491.55 185.978 489.508L180.659 436.776C176.583 437.187 171.047 436.456 159.761 429.516C147.82 422.176 133.256 410.353 111.131 392.282L77.6053 433.332ZM351.333 98.1828C373.458 116.252 387.952 128.162 397.529 138.397C406.584 148.07 408.405 153.348 408.816 157.423L461.549 152.104C459.507 131.863 449.331 116.184 436.228 102.181C423.647 88.7404 405.825 74.256 384.861 57.1339L351.333 98.1828ZM405.373 260.48C422.495 239.516 437.065 221.763 446.709 206.081C456.751 189.741 463.591 172.346 461.549 152.104L408.816 157.423C409.228 161.501 408.497 167.037 401.556 178.323C394.217 190.264 382.393 204.827 364.323 226.953L405.373 260.48ZM384.861 57.1339C363.896 40.0118 346.144 25.4405 330.462 15.799C314.125 5.75477 296.73 -1.08458 276.488 0.957339L281.807 53.6897C285.881 53.2787 291.417 54.0108 302.703 60.9493C314.645 68.2905 329.211 80.1128 351.333 98.1828L384.861 57.1339ZM222.564 111.172C240.635 89.0479 252.543 74.555 262.778 64.9768C272.451 55.924 277.729 54.1011 281.807 53.6897L276.488 0.957339C256.245 2.99925 240.567 13.1749 226.561 26.2798C213.121 38.8591 198.636 56.6823 181.514 77.6463L222.564 111.172ZM302.072 345.065L119.265 195.758L85.7389 236.805L268.548 386.112L302.072 345.065Z" fill="black"/>
</svg>
