<svg width="505" height="505" viewBox="0 0 505 505" fill="none" xmlns="http://www.w3.org/2000/svg">
<path d="M0.04 454.44C0.04 468.307 4.83999 480.04 14.44 489.64C24.04 499.24 36.04 504.307 50.44 504.84H151.24C165.107 504.84 177.107 499.773 187.24 489.64C197.373 479.507 202.173 467.773 201.64 454.44V50.44C201.64 36.5733 196.84 24.5733 187.24 14.44C177.64 4.30666 165.64 -0.493333 151.24 0.04H50.44C36.5733 0.04 24.5733 4.83999 14.44 14.44C4.30666 24.04 -0.493333 36.04 0.04 50.44V454.44ZM302.44 454.44C302.44 468.307 307.507 480.04 317.64 489.64C327.773 499.24 339.507 504.307 352.84 504.84H453.64C467.507 504.84 479.507 499.773 489.64 489.64C499.773 479.507 504.573 467.773 504.04 454.44V50.44C504.04 36.5733 499.24 24.5733 489.64 14.44C480.04 4.30666 468.04 -0.493333 453.64 0.04H352.84C338.973 0.04 327.24 4.83999 317.64 14.44C308.04 24.04 302.973 36.04 302.44 50.44V454.44Z" fill="white"/>
</svg>
