<svg width="433" height="496" viewBox="0 0 433 496" fill="none" xmlns="http://www.w3.org/2000/svg">
<path d="M241.414 118.682C249.706 108.339 248.042 93.2346 237.696 84.945C227.354 76.6557 212.25 78.32 203.962 88.6631L241.414 118.682ZM33.952 339.162L52.129 354.832C52.3165 354.614 52.4999 354.394 52.6794 354.17L33.952 339.162ZM28.48 352.538L4.52674 350.973L4.50562 351.427L28.48 352.538ZM24 449.274L0.0256228 448.163C-0.0294172 449.354 0.00418278 450.547 0.126743 451.734L24 449.274ZM49.184 471.258L49.9687 495.245C51.5693 495.19 53.1603 494.979 54.7187 494.608L49.184 471.258ZM145.184 448.506L150.72 471.859L151.091 471.766L145.184 448.506ZM157.504 440.698L176.019 455.971L176.227 455.712L157.504 440.698ZM369.507 214.688C377.798 204.346 376.138 189.242 365.798 180.949C355.459 172.657 340.352 174.317 332.061 184.659L369.507 214.688ZM204.061 88.6567C195.77 98.9968 197.427 114.102 207.77 122.395C218.109 130.688 233.213 129.028 241.507 118.688L204.061 88.6567ZM273.6 40.3123L292.323 55.3283C292.637 54.9351 292.941 54.5318 293.232 54.1194L273.6 40.3123ZM325.728 30.0723L341.082 11.6262C340.317 10.9901 339.514 10.4023 338.678 9.86561L325.728 30.0723ZM397.312 89.6563L414.298 72.7015C413.776 72.1795 413.232 71.6823 412.666 71.2103L397.312 89.6563ZM397.024 142.072L380.224 124.932C379.546 125.599 378.906 126.305 378.307 127.048L397.024 142.072ZM332.061 184.659C323.763 194.995 325.424 210.09 335.76 218.387C346.096 226.685 361.21 225.024 369.507 214.688L332.061 184.659ZM246.518 100.116C244.554 87.0074 232.336 77.9731 219.229 79.9376C206.118 81.9018 197.085 94.1207 199.05 107.229L246.518 100.116ZM354.016 223.453C367.149 221.67 376.349 209.574 374.566 196.442C372.781 183.307 360.688 174.106 347.552 175.891L354.016 223.453ZM203.962 88.6631L15.2247 324.15L52.6794 354.17L241.414 118.682L203.962 88.6631ZM15.7751 323.488C9.13954 331.184 5.18818 340.832 4.52674 350.973L52.4291 354.099C52.4115 354.368 52.3063 354.627 52.129 354.832L15.7751 323.488ZM4.50562 351.427L0.0256228 448.163L47.9744 450.384L52.4544 353.648L4.50562 351.427ZM0.126743 451.734C2.74018 477.075 24.5082 496.077 49.9687 495.245L48.3994 447.27C48.297 447.274 48.2467 447.258 48.2141 447.245C48.1683 447.229 48.1079 447.197 48.0461 447.142C47.984 447.088 47.944 447.034 47.9213 446.992C47.905 446.96 47.8839 446.912 47.8733 446.81L0.126743 451.734ZM54.7187 494.608L150.72 471.859L139.648 425.152L43.6493 447.904L54.7187 494.608ZM151.091 471.766C160.867 469.283 169.6 463.754 176.019 455.971L138.989 425.424C139.066 425.334 139.165 425.27 139.277 425.242L151.091 471.766ZM176.227 455.712L369.507 214.688L332.061 184.659L138.781 425.683L176.227 455.712ZM241.507 118.688L292.323 55.3283L254.877 25.2967L204.061 88.6567L241.507 118.688ZM293.232 54.1194C297.667 47.8115 306.285 46.1184 312.778 50.2794L338.678 9.86561C310.541 -8.16511 273.194 -0.828787 253.968 26.5056L293.232 54.1194ZM310.374 48.5184L381.958 108.102L412.666 71.2103L341.082 11.6262L310.374 48.5184ZM380.326 106.612C382.755 109.046 384.112 112.352 384.093 115.793L432.093 116.056C432.182 99.8096 425.776 84.2007 414.298 72.7015L380.326 106.612ZM384.093 115.793C384.077 119.233 382.682 122.524 380.224 124.932L413.824 159.213C425.427 147.841 432.003 132.303 432.093 116.056L384.093 115.793ZM378.307 127.048L332.061 184.659L369.507 214.688L415.741 157.097L378.307 127.048ZM199.05 107.229C210.227 181.831 279.267 233.61 354.016 223.453L347.552 175.891C298.819 182.513 253.808 148.754 246.518 100.116L199.05 107.229Z" fill="black"/>
</svg>
