<svg width="437" height="505" viewBox="0 0 437 505" fill="none" xmlns="http://www.w3.org/2000/svg">
<path d="M0 454.58C0 472.721 6.70432 487.126 20.113 497.797C27.5108 502.599 35.3711 505 43.6937 505C50.1668 505 56.64 503.133 63.1131 499.398L413.356 297.718C420.292 293.45 426.071 287.314 430.695 279.311C435.319 271.307 437.399 262.237 436.937 252.1C436.475 241.962 434.394 233.159 430.695 225.689C426.996 218.22 421.216 212.084 413.356 207.282L63.1131 5.60222C56.64 1.86741 50.1668 0 43.6937 0C35.8334 0 27.9732 2.40095 20.113 7.20286C6.70432 17.3402 0 31.7459 0 50.42V454.58Z" fill="black"/>
</svg>
